<svg version="1.1" xmlns="http://www.w3.org/2000/svg" viewBox="0 0 149.40285471051743 196.97934276856301" width="149.40285471051743" height="196.97934276856301">
  <!-- svg-source:excalidraw -->
  
  <defs>
    <style class="style-fonts">
      @font-face {
        font-family: "Virgil";
        src: url("https://file%2B.vscode-resource.vscode-cdn.net/c%3A/Users/Asus/.vscode/extensions/pomdtr.excalidraw-editor-3.7.3/public//dist/excalidraw-assets/Virgil.woff2");
      }
      @font-face {
        font-family: "Cascadia";
        src: url("https://file%2B.vscode-resource.vscode-cdn.net/c%3A/Users/Asus/.vscode/extensions/pomdtr.excalidraw-editor-3.7.3/public//dist/excalidraw-assets/Cascadia.woff2");
      }
      @font-face {
        font-family: "Assistant";
        src: url("https://file%2B.vscode-resource.vscode-cdn.net/c%3A/Users/Asus/.vscode/extensions/pomdtr.excalidraw-editor-3.7.3/public//dist/excalidraw-assets/Assistant-Regular.woff2");
      }
    </style>
    
  </defs>
  <rect x="0" y="0" width="149.40285471051743" height="196.97934276856301" fill="#333"></rect><g stroke-linecap="round" transform="translate(57.48462092204841 24.34087358540296) rotate(0 18.298583615320467 19)"><path d="M21.51 -0.15 C25.29 0.32, 30.16 3.41, 32.7 6.58 C35.25 9.75, 36.86 14.67, 36.77 18.89 C36.69 23.11, 34.82 28.71, 32.21 31.92 C29.61 35.13, 25.06 37.6, 21.15 38.17 C17.23 38.74, 12.07 37.55, 8.73 35.33 C5.39 33.1, 2.38 28.63, 1.09 24.81 C-0.21 20.98, -0.41 16.16, 0.96 12.37 C2.34 8.58, 5.77 4.02, 9.34 2.08 C12.91 0.14, 20.09 0.88, 22.37 0.73 C24.65 0.58, 23.15 0.88, 23.03 1.19 M19.58 -0.46 C23.48 -0.4, 28.18 2.48, 31.07 5.24 C33.96 7.99, 36.35 12.07, 36.92 16.08 C37.49 20.09, 36.63 25.68, 34.51 29.28 C32.38 32.88, 27.94 36.55, 24.17 37.66 C20.4 38.77, 15.44 37.63, 11.88 35.95 C8.32 34.28, 4.74 31.15, 2.82 27.59 C0.9 24.03, -0.38 18.57, 0.37 14.58 C1.12 10.58, 4.09 6.16, 7.31 3.61 C10.53 1.06, 17.84 -0.23, 19.69 -0.72 C21.53 -1.22, 18.58 0.27, 18.39 0.64" stroke="none" stroke-width="0" fill="#b2f2bb"></path><path d="M21.1 0.64 C24.76 0.96, 29.57 3.28, 32.11 6.27 C34.64 9.26, 36.24 14.53, 36.31 18.59 C36.38 22.65, 34.98 27.51, 32.52 30.63 C30.06 33.74, 25.35 36.52, 21.55 37.26 C17.76 38.01, 13.18 36.97, 9.72 35.11 C6.27 33.25, 2.31 29.75, 0.8 26.09 C-0.72 22.44, -0.69 17.14, 0.64 13.19 C1.97 9.24, 5.08 4.54, 8.78 2.4 C12.48 0.26, 20.46 0.48, 22.86 0.33 C25.25 0.18, 23.25 1.22, 23.15 1.51 M14.07 0.74 C17.84 -0.2, 24.35 1.17, 27.87 3.01 C31.39 4.86, 33.98 8.18, 35.21 11.79 C36.44 15.41, 36.48 20.89, 35.25 24.69 C34.03 28.48, 31.17 32.44, 27.86 34.55 C24.54 36.66, 19.32 37.8, 15.35 37.36 C11.38 36.92, 6.55 34.91, 4.03 31.93 C1.52 28.95, 0.31 23.59, 0.26 19.48 C0.2 15.38, 1.39 10.45, 3.72 7.29 C6.05 4.12, 12.43 1.49, 14.24 0.51 C16.04 -0.46, 14.32 1.15, 14.56 1.43" stroke="#343a40" stroke-width="2" fill="none"></path></g><g stroke-linecap="round"><g transform="translate(34.06968187030566 99.13894280962052) rotate(0 38.74810092137477 -4.220090199357685)" fill-rule="evenodd"><path d="M-2.4 -1.98 C4.45 -6.51, 25.52 -25.68, 39.17 -25.58 C52.82 -25.48, 79.75 -8.6, 79.51 -1.38 C79.26 5.84, 51.07 17.73, 37.7 17.75 C24.33 17.77, 5.27 1.43, -0.72 -1.29" stroke="none" stroke-width="0" fill="#b2f2bb" fill-rule="evenodd"></path><path d="M0.76 0.68 C6.89 -3.42, 24.74 -23.77, 37.69 -24.02 C50.64 -24.27, 78.33 -7.27, 78.45 -0.83 C78.57 5.62, 51.54 14.52, 38.42 14.67 C25.3 14.82, 6.27 2.58, -0.28 0.05 M-0.29 -0.01 C5.6 -3.97, 23.71 -22.68, 36.79 -22.61 C49.87 -22.53, 77.94 -5.88, 78.19 0.46 C78.44 6.8, 51.03 15.42, 38.29 15.42 C25.56 15.42, 8.13 3.34, 1.76 0.47" stroke="#343a40" stroke-width="2" fill="none"></path></g></g><mask></mask><g stroke-linecap="round" transform="translate(11.319243878619204 10.779037007950024) rotate(0 64.04180541594911 62.275134921716074)"><path d="M84 2.6 C93.52 4.43, 104.32 11.62, 111.16 18.79 C117.99 25.96, 122.3 36.37, 125.01 45.6 C127.71 54.84, 129.41 64.93, 127.39 74.2 C125.38 83.47, 119.2 93.82, 112.92 101.22 C106.65 108.62, 98.64 114.57, 89.73 118.59 C80.83 122.61, 69.31 125.97, 59.48 125.33 C49.65 124.68, 39.3 120.12, 30.74 114.73 C22.19 109.35, 13.35 101.29, 8.13 93 C2.91 84.71, -0.08 74.58, -0.57 65 C-1.06 55.41, 0.94 44.33, 5.19 35.48 C9.45 26.63, 16.78 17.62, 24.96 11.9 C33.14 6.18, 44.06 2.58, 54.28 1.16 C64.5 -0.27, 80.71 2.74, 86.29 3.37 C91.88 4, 88.17 3.97, 87.81 4.96 M92 6.69 C100.83 9.88, 111.58 17.63, 117.34 25.37 C123.1 33.12, 125.66 43.37, 126.57 53.16 C127.48 62.95, 126.23 74.86, 122.8 84.13 C119.36 93.41, 113.23 102.38, 105.95 108.81 C98.67 115.24, 88.26 120.4, 79.12 122.72 C69.99 125.05, 60.39 125.06, 51.12 122.76 C41.85 120.46, 31.28 115.15, 23.52 108.93 C15.76 102.71, 8.62 94.43, 4.54 85.43 C0.47 76.44, -2.04 64.63, -0.93 54.98 C0.18 45.33, 5.63 35.39, 11.2 27.53 C16.77 19.67, 23.69 12.26, 32.47 7.82 C41.26 3.37, 53.71 1.17, 63.91 0.86 C74.1 0.55, 88.77 4.77, 93.65 5.97 C98.54 7.17, 93.96 7.21, 93.2 8.05" stroke="#868e96" stroke-width="2" fill="none"></path></g><g transform="translate(41.24254575836028 147.83712461504206) rotate(0 34.600517257669935 19.57110907676048)"><text x="0" y="0" font-family="Virgil, Segoe UI Emoji" font-size="31.504852580272377px" fill="#2f9e44" text-anchor="start" style="white-space: pre;" direction="ltr" dominant-baseline="text-before-edge">65%</text></g><g stroke-linecap="round"><g transform="translate(85.67981492392715 11.360189713335501) rotate(0 -37.443678064456066 62.337551942473794)"><path d="M0 0 C-5.01 0.14, -19.48 -3.63, -30.04 0.82 C-40.6 5.28, -55.89 18.24, -63.37 26.75 C-70.84 35.25, -73.24 43.41, -74.89 51.85 C-76.53 60.28, -75.44 68.85, -73.24 77.36 C-71.05 85.86, -66.32 96.56, -61.72 102.87 C-57.13 109.18, -51.23 111.92, -45.67 115.21 C-40.12 118.5, -34.49 121.04, -28.39 122.62 C-22.29 124.2, -12.28 124.33, -9.05 124.68 M0 0 C-5.01 0.14, -19.48 -3.63, -30.04 0.82 C-40.6 5.28, -55.89 18.24, -63.37 26.75 C-70.84 35.25, -73.24 43.41, -74.89 51.85 C-76.53 60.28, -75.44 68.85, -73.24 77.36 C-71.05 85.86, -66.32 96.56, -61.72 102.87 C-57.13 109.18, -51.23 111.92, -45.67 115.21 C-40.12 118.5, -34.49 121.04, -28.39 122.62 C-22.29 124.2, -12.28 124.33, -9.05 124.68" stroke="#000000" stroke-width="4" fill="none"></path></g></g><mask></mask></svg>